<?xml version="1.0" encoding="UTF-8" standalone="no"?>
<!DOCTYPE svg PUBLIC "-//W3C//DTD SVG 1.1//EN"
 "http://www.w3.org/Graphics/SVG/1.1/DTD/svg11.dtd">
<!-- Generated by graphviz version 2.36.0 (20140111.2315)
 -->
<!-- Title: controllers_diagram Pages: 1 -->
<svg width="934pt" height="843pt"
 viewBox="0.00 0.00 934.42 843.42" xmlns="http://www.w3.org/2000/svg" xmlns:xlink="http://www.w3.org/1999/xlink">
<g id="graph0" class="graph" transform="scale(1 1) rotate(0) translate(4 839.417)">
<title>controllers_diagram</title>
<polygon fill="white" stroke="none" points="-4,4 -4,-839.417 930.423,-839.417 930.423,4 -4,4"/>
<!-- _diagram_info -->
<g id="node1" class="node"><title>_diagram_info</title>
<text text-anchor="start" x="728" y="-118.6" font-family="Times,serif" font-size="13.00">Controllers diagram</text>
<text text-anchor="start" x="728" y="-105.6" font-family="Times,serif" font-size="13.00">Date: Feb 23 2014 &#45; 19:25</text>
<text text-anchor="start" x="728" y="-92.6" font-family="Times,serif" font-size="13.00">Migration version: 20140211153034</text>
<text text-anchor="start" x="728" y="-79.6" font-family="Times,serif" font-size="13.00">Generated by RailRoady 1.1.1</text>
<text text-anchor="start" x="728" y="-66.6" font-family="Times,serif" font-size="13.00">http://railroady.prestonlee.com</text>
</g>
<!-- ApplicationController -->
<g id="node2" class="node"><title>ApplicationController</title>
<path fill="none" stroke="black" d="M249.315,-313.7C249.315,-313.7 441.164,-313.7 441.164,-313.7 447.164,-313.7 453.164,-319.7 453.164,-325.7 453.164,-325.7 453.164,-515.7 453.164,-515.7 453.164,-521.7 447.164,-527.7 441.164,-527.7 441.164,-527.7 249.315,-527.7 249.315,-527.7 243.315,-527.7 237.315,-521.7 237.315,-515.7 237.315,-515.7 237.315,-325.7 237.315,-325.7 237.315,-319.7 243.315,-313.7 249.315,-313.7"/>
<text text-anchor="middle" x="345.24" y="-512.5" font-family="Times,serif" font-size="14.00">ApplicationController</text>
<polyline fill="none" stroke="black" points="237.315,-505.7 453.164,-505.7 "/>
<text text-anchor="start" x="245.315" y="-490.5" font-family="Times,serif" font-size="14.00">_one_time_conditions_valid_28?</text>
<text text-anchor="start" x="245.315" y="-476.5" font-family="Times,serif" font-size="14.00">_one_time_conditions_valid_30?</text>
<text text-anchor="start" x="245.315" y="-462.5" font-family="Times,serif" font-size="14.00">_one_time_conditions_valid_32?</text>
<text text-anchor="start" x="245.315" y="-448.5" font-family="Times,serif" font-size="14.00">_one_time_conditions_valid_56?</text>
<text text-anchor="start" x="245.315" y="-434.5" font-family="Times,serif" font-size="14.00">default_url_options_with_locale</text>
<text text-anchor="start" x="245.315" y="-420.5" font-family="Times,serif" font-size="14.00">default_url_options_without_locale</text>
<text text-anchor="start" x="245.315" y="-406.5" font-family="Times,serif" font-size="14.00">render</text>
<text text-anchor="start" x="245.315" y="-392.5" font-family="Times,serif" font-size="14.00">render_without_presenters</text>
<polyline fill="none" stroke="black" points="237.315,-385.7 453.164,-385.7 "/>
<text text-anchor="start" x="245.315" y="-370.5" font-family="Times,serif" font-size="14.00">default_url_options</text>
<text text-anchor="start" x="245.315" y="-356.5" font-family="Times,serif" font-size="14.00">find_or_set_locale</text>
<polyline fill="none" stroke="black" points="237.315,-349.7 453.164,-349.7 "/>
<text text-anchor="start" x="245.315" y="-334.5" font-family="Times,serif" font-size="14.00">_layout</text>
<text text-anchor="start" x="245.315" y="-320.5" font-family="Times,serif" font-size="14.00">set_locale</text>
</g>
<!-- DashboardsController -->
<g id="node3" class="node"><title>DashboardsController</title>
<path fill="none" stroke="black" d="M492.443,-382.911C492.443,-382.911 678.078,-382.911 678.078,-382.911 684.078,-382.911 690.078,-388.911 690.078,-394.911 690.078,-394.911 690.078,-488.911 690.078,-488.911 690.078,-494.911 684.078,-500.911 678.078,-500.911 678.078,-500.911 492.443,-500.911 492.443,-500.911 486.443,-500.911 480.443,-494.911 480.443,-488.911 480.443,-488.911 480.443,-394.911 480.443,-394.911 480.443,-388.911 486.443,-382.911 492.443,-382.911"/>
<text text-anchor="middle" x="585.261" y="-485.711" font-family="Times,serif" font-size="14.00">DashboardsController</text>
<polyline fill="none" stroke="black" points="480.443,-478.911 690.078,-478.911 "/>
<text text-anchor="start" x="488.443" y="-463.711" font-family="Times,serif" font-size="14.00">_one_time_conditions_valid_318?</text>
<text text-anchor="start" x="488.443" y="-449.711" font-family="Times,serif" font-size="14.00">index</text>
<text text-anchor="start" x="488.443" y="-435.711" font-family="Times,serif" font-size="14.00">update_login</text>
<polyline fill="none" stroke="black" points="480.443,-428.911 690.078,-428.911 "/>
<polyline fill="none" stroke="black" points="480.443,-404.911 690.078,-404.911 "/>
<text text-anchor="start" x="488.443" y="-389.711" font-family="Times,serif" font-size="14.00">_layout</text>
</g>
<!-- ApplicationController&#45;&gt;DashboardsController -->
<g id="edge1" class="edge"><title>ApplicationController&#45;&gt;DashboardsController</title>
<path fill="none" stroke="black" d="M453.314,-430.251C462.272,-431.042 471.321,-431.842 480.257,-432.631"/>
</g>
<!-- HomeController -->
<g id="node4" class="node"><title>HomeController</title>
<path fill="none" stroke="black" d="M65.9098,-95.3157C65.9098,-95.3157 149.669,-95.3157 149.669,-95.3157 155.669,-95.3157 161.669,-101.316 161.669,-107.316 161.669,-107.316 161.669,-187.316 161.669,-187.316 161.669,-193.316 155.669,-199.316 149.669,-199.316 149.669,-199.316 65.9098,-199.316 65.9098,-199.316 59.9098,-199.316 53.9098,-193.316 53.9098,-187.316 53.9098,-187.316 53.9098,-107.316 53.9098,-107.316 53.9098,-101.316 59.9098,-95.3157 65.9098,-95.3157"/>
<text text-anchor="middle" x="107.789" y="-184.116" font-family="Times,serif" font-size="14.00">HomeController</text>
<polyline fill="none" stroke="black" points="53.9098,-177.316 161.669,-177.316 "/>
<text text-anchor="start" x="61.9098" y="-162.116" font-family="Times,serif" font-size="14.00">autocomplete</text>
<text text-anchor="start" x="61.9098" y="-148.116" font-family="Times,serif" font-size="14.00">index</text>
<polyline fill="none" stroke="black" points="53.9098,-141.316 161.669,-141.316 "/>
<polyline fill="none" stroke="black" points="53.9098,-117.316 161.669,-117.316 "/>
<text text-anchor="start" x="61.9098" y="-102.116" font-family="Times,serif" font-size="14.00">_layout</text>
</g>
<!-- ApplicationController&#45;&gt;HomeController -->
<g id="edge2" class="edge"><title>ApplicationController&#45;&gt;HomeController</title>
<path fill="none" stroke="black" d="M252.074,-313.436C218.033,-274.243 181.049,-231.662 153.048,-199.424"/>
</g>
<!-- ProjectMediaController -->
<g id="node5" class="node"><title>ProjectMediaController</title>
<path fill="none" stroke="black" d="M40.5761,-656.885C40.5761,-656.885 165.542,-656.885 165.542,-656.885 171.542,-656.885 177.542,-662.885 177.542,-668.885 177.542,-668.885 177.542,-748.885 177.542,-748.885 177.542,-754.885 171.542,-760.885 165.542,-760.885 165.542,-760.885 40.5761,-760.885 40.5761,-760.885 34.5761,-760.885 28.5761,-754.885 28.5761,-748.885 28.5761,-748.885 28.5761,-668.885 28.5761,-668.885 28.5761,-662.885 34.5761,-656.885 40.5761,-656.885"/>
<text text-anchor="middle" x="103.059" y="-745.685" font-family="Times,serif" font-size="14.00">ProjectMediaController</text>
<polyline fill="none" stroke="black" points="28.5761,-738.885 177.542,-738.885 "/>
<text text-anchor="start" x="36.5761" y="-723.685" font-family="Times,serif" font-size="14.00">create</text>
<text text-anchor="start" x="36.5761" y="-709.685" font-family="Times,serif" font-size="14.00">destroy</text>
<polyline fill="none" stroke="black" points="28.5761,-702.885 177.542,-702.885 "/>
<polyline fill="none" stroke="black" points="28.5761,-678.885 177.542,-678.885 "/>
<text text-anchor="start" x="36.5761" y="-663.685" font-family="Times,serif" font-size="14.00">_layout</text>
</g>
<!-- ApplicationController&#45;&gt;ProjectMediaController -->
<g id="edge3" class="edge"><title>ApplicationController&#45;&gt;ProjectMediaController</title>
<path fill="none" stroke="black" d="M255.06,-528.01C218.078,-572.018 176.972,-620.932 146.842,-656.786"/>
</g>
<!-- ProjectsController -->
<g id="node6" class="node"><title>ProjectsController</title>
<path fill="none" stroke="black" d="M490.303,-615.808C490.303,-615.808 675.937,-615.808 675.937,-615.808 681.937,-615.808 687.937,-621.808 687.937,-627.808 687.937,-627.808 687.937,-805.808 687.937,-805.808 687.937,-811.808 681.937,-817.808 675.937,-817.808 675.937,-817.808 490.303,-817.808 490.303,-817.808 484.303,-817.808 478.303,-811.808 478.303,-805.808 478.303,-805.808 478.303,-627.808 478.303,-627.808 478.303,-621.808 484.303,-615.808 490.303,-615.808"/>
<text text-anchor="middle" x="583.12" y="-802.608" font-family="Times,serif" font-size="14.00">ProjectsController</text>
<polyline fill="none" stroke="black" points="478.303,-795.808 687.937,-795.808 "/>
<text text-anchor="start" x="486.303" y="-780.608" font-family="Times,serif" font-size="14.00">_one_time_conditions_valid_414?</text>
<text text-anchor="start" x="486.303" y="-766.608" font-family="Times,serif" font-size="14.00">_one_time_conditions_valid_416?</text>
<text text-anchor="start" x="486.303" y="-752.608" font-family="Times,serif" font-size="14.00">_one_time_conditions_valid_420?</text>
<text text-anchor="start" x="486.303" y="-738.608" font-family="Times,serif" font-size="14.00">create</text>
<text text-anchor="start" x="486.303" y="-724.608" font-family="Times,serif" font-size="14.00">index</text>
<text text-anchor="start" x="486.303" y="-710.608" font-family="Times,serif" font-size="14.00">new</text>
<text text-anchor="start" x="486.303" y="-696.608" font-family="Times,serif" font-size="14.00">show</text>
<polyline fill="none" stroke="black" points="478.303,-689.808 687.937,-689.808 "/>
<polyline fill="none" stroke="black" points="478.303,-665.808 687.937,-665.808 "/>
<text text-anchor="start" x="486.303" y="-650.608" font-family="Times,serif" font-size="14.00">_layout</text>
<text text-anchor="start" x="486.303" y="-636.608" font-family="Times,serif" font-size="14.00">convert_to_datetime</text>
<text text-anchor="start" x="486.303" y="-622.608" font-family="Times,serif" font-size="14.00">validate_home_search</text>
</g>
<!-- ApplicationController&#45;&gt;ProjectsController -->
<g id="edge4" class="edge"><title>ApplicationController&#45;&gt;ProjectsController</title>
<path fill="none" stroke="black" d="M431.456,-528.02C454.459,-556.654 479.232,-587.491 501.953,-615.774"/>
</g>
<!-- ProjectsSetupController -->
<g id="node7" class="node"><title>ProjectsSetupController</title>
<path fill="none" stroke="black" d="M248.056,-576.917C248.056,-576.917 433.691,-576.917 433.691,-576.917 439.691,-576.917 445.691,-582.917 445.691,-588.917 445.691,-588.917 445.691,-822.917 445.691,-822.917 445.691,-828.917 439.691,-834.917 433.691,-834.917 433.691,-834.917 248.056,-834.917 248.056,-834.917 242.056,-834.917 236.056,-828.917 236.056,-822.917 236.056,-822.917 236.056,-588.917 236.056,-588.917 236.056,-582.917 242.056,-576.917 248.056,-576.917"/>
<text text-anchor="middle" x="340.873" y="-819.717" font-family="Times,serif" font-size="14.00">ProjectsSetupController</text>
<polyline fill="none" stroke="black" points="236.056,-812.917 445.691,-812.917 "/>
<text text-anchor="start" x="244.056" y="-797.717" font-family="Times,serif" font-size="14.00">_callback_before_429</text>
<text text-anchor="start" x="244.056" y="-783.717" font-family="Times,serif" font-size="14.00">_one_time_conditions_valid_424?</text>
<text text-anchor="start" x="244.056" y="-769.717" font-family="Times,serif" font-size="14.00">_one_time_conditions_valid_426?</text>
<text text-anchor="start" x="244.056" y="-755.717" font-family="Times,serif" font-size="14.00">_one_time_conditions_valid_428?</text>
<text text-anchor="start" x="244.056" y="-741.717" font-family="Times,serif" font-size="14.00">_one_time_conditions_valid_430?</text>
<text text-anchor="start" x="244.056" y="-727.717" font-family="Times,serif" font-size="14.00">application_deadline</text>
<text text-anchor="start" x="244.056" y="-713.717" font-family="Times,serif" font-size="14.00">show</text>
<text text-anchor="start" x="244.056" y="-699.717" font-family="Times,serif" font-size="14.00">update</text>
<polyline fill="none" stroke="black" points="236.056,-692.917 445.691,-692.917 "/>
<polyline fill="none" stroke="black" points="236.056,-668.917 445.691,-668.917 "/>
<text text-anchor="start" x="244.056" y="-653.717" font-family="Times,serif" font-size="14.00">_layout</text>
<text text-anchor="start" x="244.056" y="-639.717" font-family="Times,serif" font-size="14.00">associate_to_fieldhost</text>
<text text-anchor="start" x="244.056" y="-625.717" font-family="Times,serif" font-size="14.00">check_step</text>
<text text-anchor="start" x="244.056" y="-611.717" font-family="Times,serif" font-size="14.00">clean_select_multiple_params</text>
<text text-anchor="start" x="244.056" y="-597.717" font-family="Times,serif" font-size="14.00">create_login_session</text>
<text text-anchor="start" x="244.056" y="-583.717" font-family="Times,serif" font-size="14.00">current_project</text>
</g>
<!-- ApplicationController&#45;&gt;ProjectsSetupController -->
<g id="edge5" class="edge"><title>ApplicationController&#45;&gt;ProjectsSetupController</title>
<path fill="none" stroke="black" d="M343.601,-527.716C343.357,-543.681 343.103,-560.281 342.852,-576.646"/>
</g>
<!-- SessionsController -->
<g id="node8" class="node"><title>SessionsController</title>
<path fill="none" stroke="black" d="M12,-332.319C12,-332.319 197.635,-332.319 197.635,-332.319 203.635,-332.319 209.635,-338.319 209.635,-344.319 209.635,-344.319 209.635,-508.319 209.635,-508.319 209.635,-514.319 203.635,-520.319 197.635,-520.319 197.635,-520.319 12,-520.319 12,-520.319 6,-520.319 0,-514.319 0,-508.319 0,-508.319 0,-344.319 0,-344.319 0,-338.319 6,-332.319 12,-332.319"/>
<text text-anchor="middle" x="104.817" y="-505.119" font-family="Times,serif" font-size="14.00">SessionsController</text>
<polyline fill="none" stroke="black" points="0,-498.319 209.635,-498.319 "/>
<text text-anchor="start" x="8" y="-483.119" font-family="Times,serif" font-size="14.00">_one_time_conditions_valid_432?</text>
<text text-anchor="start" x="8" y="-469.119" font-family="Times,serif" font-size="14.00">create</text>
<text text-anchor="start" x="8" y="-455.119" font-family="Times,serif" font-size="14.00">destroy</text>
<text text-anchor="start" x="8" y="-441.119" font-family="Times,serif" font-size="14.00">edit</text>
<text text-anchor="start" x="8" y="-427.119" font-family="Times,serif" font-size="14.00">index</text>
<text text-anchor="start" x="8" y="-413.119" font-family="Times,serif" font-size="14.00">new</text>
<text text-anchor="start" x="8" y="-399.119" font-family="Times,serif" font-size="14.00">show</text>
<text text-anchor="start" x="8" y="-385.119" font-family="Times,serif" font-size="14.00">update</text>
<polyline fill="none" stroke="black" points="0,-378.319 209.635,-378.319 "/>
<polyline fill="none" stroke="black" points="0,-354.319 209.635,-354.319 "/>
<text text-anchor="start" x="8" y="-339.119" font-family="Times,serif" font-size="14.00">_layout</text>
</g>
<!-- ApplicationController&#45;&gt;SessionsController -->
<g id="edge6" class="edge"><title>ApplicationController&#45;&gt;SessionsController</title>
<path fill="none" stroke="black" d="M236.985,-423.23C228.011,-423.44 218.947,-423.652 209.997,-423.861"/>
</g>
<!-- StudentsController -->
<g id="node9" class="node"><title>StudentsController</title>
<path fill="none" stroke="black" d="M540.402,-103.695C540.402,-103.695 638.174,-103.695 638.174,-103.695 644.174,-103.695 650.174,-109.695 650.174,-115.695 650.174,-115.695 650.174,-195.695 650.174,-195.695 650.174,-201.695 644.174,-207.695 638.174,-207.695 638.174,-207.695 540.402,-207.695 540.402,-207.695 534.402,-207.695 528.402,-201.695 528.402,-195.695 528.402,-195.695 528.402,-115.695 528.402,-115.695 528.402,-109.695 534.402,-103.695 540.402,-103.695"/>
<text text-anchor="middle" x="589.288" y="-192.495" font-family="Times,serif" font-size="14.00">StudentsController</text>
<polyline fill="none" stroke="black" points="528.402,-185.695 650.174,-185.695 "/>
<text text-anchor="start" x="536.402" y="-170.495" font-family="Times,serif" font-size="14.00">create</text>
<text text-anchor="start" x="536.402" y="-156.495" font-family="Times,serif" font-size="14.00">new</text>
<polyline fill="none" stroke="black" points="528.402,-149.695 650.174,-149.695 "/>
<polyline fill="none" stroke="black" points="528.402,-125.695 650.174,-125.695 "/>
<text text-anchor="start" x="536.402" y="-110.495" font-family="Times,serif" font-size="14.00">_layout</text>
</g>
<!-- ApplicationController&#45;&gt;StudentsController -->
<g id="edge7" class="edge"><title>ApplicationController&#45;&gt;StudentsController</title>
<path fill="none" stroke="black" d="M443.8,-313.676C477.402,-277.189 513.47,-238.024 541.288,-207.817"/>
</g>
<!-- StudentsSetupController -->
<g id="node10" class="node"><title>StudentsSetupController</title>
<path fill="none" stroke="black" d="M258.839,-0.5C258.839,-0.5 444.474,-0.5 444.474,-0.5 450.474,-0.5 456.474,-6.5 456.474,-12.5 456.474,-12.5 456.474,-274.5 456.474,-274.5 456.474,-280.5 450.474,-286.5 444.474,-286.5 444.474,-286.5 258.839,-286.5 258.839,-286.5 252.839,-286.5 246.839,-280.5 246.839,-274.5 246.839,-274.5 246.839,-12.5 246.839,-12.5 246.839,-6.5 252.839,-0.5 258.839,-0.5"/>
<text text-anchor="middle" x="351.656" y="-271.3" font-family="Times,serif" font-size="14.00">StudentsSetupController</text>
<polyline fill="none" stroke="black" points="246.839,-264.5 456.474,-264.5 "/>
<text text-anchor="start" x="254.839" y="-249.3" font-family="Times,serif" font-size="14.00">_callback_before_551</text>
<text text-anchor="start" x="254.839" y="-235.3" font-family="Times,serif" font-size="14.00">_one_time_conditions_valid_542?</text>
<text text-anchor="start" x="254.839" y="-221.3" font-family="Times,serif" font-size="14.00">_one_time_conditions_valid_544?</text>
<text text-anchor="start" x="254.839" y="-207.3" font-family="Times,serif" font-size="14.00">_one_time_conditions_valid_546?</text>
<text text-anchor="start" x="254.839" y="-193.3" font-family="Times,serif" font-size="14.00">_one_time_conditions_valid_550?</text>
<text text-anchor="start" x="254.839" y="-179.3" font-family="Times,serif" font-size="14.00">_one_time_conditions_valid_552?</text>
<text text-anchor="start" x="254.839" y="-165.3" font-family="Times,serif" font-size="14.00">project_sessions</text>
<text text-anchor="start" x="254.839" y="-151.3" font-family="Times,serif" font-size="14.00">show</text>
<text text-anchor="start" x="254.839" y="-137.3" font-family="Times,serif" font-size="14.00">update</text>
<polyline fill="none" stroke="black" points="246.839,-130.5 456.474,-130.5 "/>
<polyline fill="none" stroke="black" points="246.839,-106.5 456.474,-106.5 "/>
<text text-anchor="start" x="254.839" y="-91.3" font-family="Times,serif" font-size="14.00">_layout</text>
<text text-anchor="start" x="254.839" y="-77.3" font-family="Times,serif" font-size="14.00">associate_to_student</text>
<text text-anchor="start" x="254.839" y="-63.3" font-family="Times,serif" font-size="14.00">clean_select_multiple_params</text>
<text text-anchor="start" x="254.839" y="-49.3" font-family="Times,serif" font-size="14.00">create_login_session</text>
<text text-anchor="start" x="254.839" y="-35.3" font-family="Times,serif" font-size="14.00">current_student_application</text>
<text text-anchor="start" x="254.839" y="-21.3" font-family="Times,serif" font-size="14.00">remove_extra_attributes</text>
<text text-anchor="start" x="254.839" y="-7.3" font-family="Times,serif" font-size="14.00">update_wizard_status</text>
</g>
<!-- ApplicationController&#45;&gt;StudentsSetupController -->
<g id="edge8" class="edge"><title>ApplicationController&#45;&gt;StudentsSetupController</title>
<path fill="none" stroke="black" d="M347.72,-313.527C347.925,-304.691 348.134,-295.675 348.343,-286.633"/>
</g>
</g>
</svg>
