<?xml version="1.0" encoding="UTF-8" standalone="no"?>
<!DOCTYPE svg PUBLIC "-//W3C//DTD SVG 1.1//EN"
 "http://www.w3.org/Graphics/SVG/1.1/DTD/svg11.dtd">
<!-- Generated by graphviz version 2.36.0 (20140111.2315)
 -->
<!-- Title: models_diagram Pages: 1 -->
<svg width="931pt" height="1416pt"
 viewBox="0.00 0.00 931.34 1416.00" xmlns="http://www.w3.org/2000/svg" xmlns:xlink="http://www.w3.org/1999/xlink">
<g id="graph0" class="graph" transform="scale(1 1) rotate(0) translate(4 1412)">
<title>models_diagram</title>
<polygon fill="white" stroke="none" points="-4,4 -4,-1412 927.336,-1412 927.336,4 -4,4"/>
<!-- _diagram_info -->
<g id="node1" class="node"><title>_diagram_info</title>
<text text-anchor="start" x="39.1244" y="-1393.1" font-family="Times,serif" font-size="13.00">Models diagram</text>
<text text-anchor="start" x="39.1244" y="-1380.1" font-family="Times,serif" font-size="13.00">Date: Feb 23 2014 &#45; 19:24</text>
<text text-anchor="start" x="39.1244" y="-1367.1" font-family="Times,serif" font-size="13.00">Migration version: 20140211153034</text>
<text text-anchor="start" x="39.1244" y="-1354.1" font-family="Times,serif" font-size="13.00">Generated by RailRoady 1.1.1</text>
<text text-anchor="start" x="39.1244" y="-1341.1" font-family="Times,serif" font-size="13.00">http://railroady.prestonlee.com</text>
</g>
<!-- FieldHost -->
<g id="node2" class="node"><title>FieldHost</title>
<path fill="none" stroke="black" d="M443.399,-779C443.399,-779 569.274,-779 569.274,-779 575.274,-779 581.274,-785 581.274,-791 581.274,-791 581.274,-993 581.274,-993 581.274,-999 575.274,-1005 569.274,-1005 569.274,-1005 443.399,-1005 443.399,-1005 437.399,-1005 431.399,-999 431.399,-993 431.399,-993 431.399,-791 431.399,-791 431.399,-785 437.399,-779 443.399,-779"/>
<text text-anchor="middle" x="506.336" y="-989.8" font-family="Times,serif" font-size="14.00">FieldHost</text>
<polyline fill="none" stroke="black" points="431.399,-983 581.274,-983 "/>
<text text-anchor="start" x="439.399" y="-967.8" font-family="Times,serif" font-size="14.00">id :integer</text>
<text text-anchor="start" x="439.399" y="-953.8" font-family="Times,serif" font-size="14.00">sf_object_id :string</text>
<text text-anchor="start" x="439.399" y="-939.8" font-family="Times,serif" font-size="14.00">first_name :string</text>
<text text-anchor="start" x="439.399" y="-925.8" font-family="Times,serif" font-size="14.00">middle_initial :string</text>
<text text-anchor="start" x="439.399" y="-911.8" font-family="Times,serif" font-size="14.00">last_name :string</text>
<text text-anchor="start" x="439.399" y="-897.8" font-family="Times,serif" font-size="14.00">salutation :string</text>
<text text-anchor="start" x="439.399" y="-883.8" font-family="Times,serif" font-size="14.00">role_title :string</text>
<text text-anchor="start" x="439.399" y="-869.8" font-family="Times,serif" font-size="14.00">preferred_phone :string</text>
<text text-anchor="start" x="439.399" y="-855.8" font-family="Times,serif" font-size="14.00">phone_type :string</text>
<text text-anchor="start" x="439.399" y="-841.8" font-family="Times,serif" font-size="14.00">organization_id :integer</text>
<text text-anchor="start" x="439.399" y="-827.8" font-family="Times,serif" font-size="14.00">properties :hstore</text>
<text text-anchor="start" x="439.399" y="-813.8" font-family="Times,serif" font-size="14.00">created_at :datetime</text>
<text text-anchor="start" x="439.399" y="-799.8" font-family="Times,serif" font-size="14.00">updated_at :datetime</text>
<text text-anchor="start" x="439.399" y="-785.8" font-family="Times,serif" font-size="14.00">profile_picture :string</text>
</g>
<!-- Login -->
<g id="node3" class="node"><title>Login</title>
<path fill="none" stroke="black" d="M137.058,-361C137.058,-361 317.614,-361 317.614,-361 323.614,-361 329.614,-367 329.614,-373 329.614,-373 329.614,-617 329.614,-617 329.614,-623 323.614,-629 317.614,-629 317.614,-629 137.058,-629 137.058,-629 131.058,-629 125.058,-623 125.058,-617 125.058,-617 125.058,-373 125.058,-373 125.058,-367 131.058,-361 137.058,-361"/>
<text text-anchor="middle" x="227.336" y="-613.8" font-family="Times,serif" font-size="14.00">Login</text>
<polyline fill="none" stroke="black" points="125.058,-607 329.614,-607 "/>
<text text-anchor="start" x="133.058" y="-591.8" font-family="Times,serif" font-size="14.00">id :integer</text>
<text text-anchor="start" x="133.058" y="-577.8" font-family="Times,serif" font-size="14.00">username :string</text>
<text text-anchor="start" x="133.058" y="-563.8" font-family="Times,serif" font-size="14.00">rol :string</text>
<text text-anchor="start" x="133.058" y="-549.8" font-family="Times,serif" font-size="14.00">entity_id :integer</text>
<text text-anchor="start" x="133.058" y="-535.8" font-family="Times,serif" font-size="14.00">entity_type :string</text>
<text text-anchor="start" x="133.058" y="-521.8" font-family="Times,serif" font-size="14.00">created_at :datetime</text>
<text text-anchor="start" x="133.058" y="-507.8" font-family="Times,serif" font-size="14.00">updated_at :datetime</text>
<text text-anchor="start" x="133.058" y="-493.8" font-family="Times,serif" font-size="14.00">email :string</text>
<text text-anchor="start" x="133.058" y="-479.8" font-family="Times,serif" font-size="14.00">encrypted_password :string</text>
<text text-anchor="start" x="133.058" y="-465.8" font-family="Times,serif" font-size="14.00">reset_password_token :string</text>
<text text-anchor="start" x="133.058" y="-451.8" font-family="Times,serif" font-size="14.00">reset_password_sent_at :datetime</text>
<text text-anchor="start" x="133.058" y="-437.8" font-family="Times,serif" font-size="14.00">remember_created_at :datetime</text>
<text text-anchor="start" x="133.058" y="-423.8" font-family="Times,serif" font-size="14.00">sign_in_count :integer</text>
<text text-anchor="start" x="133.058" y="-409.8" font-family="Times,serif" font-size="14.00">current_sign_in_at :datetime</text>
<text text-anchor="start" x="133.058" y="-395.8" font-family="Times,serif" font-size="14.00">last_sign_in_at :datetime</text>
<text text-anchor="start" x="133.058" y="-381.8" font-family="Times,serif" font-size="14.00">current_sign_in_ip :string</text>
<text text-anchor="start" x="133.058" y="-367.8" font-family="Times,serif" font-size="14.00">last_sign_in_ip :string</text>
</g>
<!-- FieldHost&#45;&gt;Login -->
<g id="edge3" class="edge"><title>FieldHost&#45;&gt;Login</title>
<path fill="none" stroke="#3041d7" d="M426.589,-778.096C395.275,-733.763 359.009,-682.419 326.068,-635.781"/>
<ellipse fill="none" stroke="#3041d7" cx="429.078" cy="-781.62" rx="4.00002" ry="4.00002"/>
<ellipse fill="#3041d7" stroke="#3041d7" cx="323.75" cy="-632.5" rx="4.00002" ry="4.00002"/>
</g>
<!-- Project -->
<g id="node5" class="node"><title>Project</title>
<path fill="none" stroke="black" d="M359.71,-368C359.71,-368 530.962,-368 530.962,-368 536.962,-368 542.962,-374 542.962,-380 542.962,-380 542.962,-610 542.962,-610 542.962,-616 536.962,-622 530.962,-622 530.962,-622 359.71,-622 359.71,-622 353.71,-622 347.71,-616 347.71,-610 347.71,-610 347.71,-380 347.71,-380 347.71,-374 353.71,-368 359.71,-368"/>
<text text-anchor="middle" x="445.336" y="-606.8" font-family="Times,serif" font-size="14.00">Project</text>
<polyline fill="none" stroke="black" points="347.71,-600 542.962,-600 "/>
<text text-anchor="start" x="355.71" y="-584.8" font-family="Times,serif" font-size="14.00">id :integer</text>
<text text-anchor="start" x="355.71" y="-570.8" font-family="Times,serif" font-size="14.00">name :string</text>
<text text-anchor="start" x="355.71" y="-556.8" font-family="Times,serif" font-size="14.00">description :text</text>
<text text-anchor="start" x="355.71" y="-542.8" font-family="Times,serif" font-size="14.00">created_at :datetime</text>
<text text-anchor="start" x="355.71" y="-528.8" font-family="Times,serif" font-size="14.00">updated_at :datetime</text>
<text text-anchor="start" x="355.71" y="-514.8" font-family="Times,serif" font-size="14.00">sf_object_id :string</text>
<text text-anchor="start" x="355.71" y="-500.8" font-family="Times,serif" font-size="14.00">organization_id :integer</text>
<text text-anchor="start" x="355.71" y="-486.8" font-family="Times,serif" font-size="14.00">field_host_id :integer</text>
<text text-anchor="start" x="355.71" y="-472.8" font-family="Times,serif" font-size="14.00">properties :hstore</text>
<text text-anchor="start" x="355.71" y="-458.8" font-family="Times,serif" font-size="14.00">status :string</text>
<text text-anchor="start" x="355.71" y="-444.8" font-family="Times,serif" font-size="14.00">wizard_status :string</text>
<text text-anchor="start" x="355.71" y="-430.8" font-family="Times,serif" font-size="14.00">team_mode :boolean</text>
<text text-anchor="start" x="355.71" y="-416.8" font-family="Times,serif" font-size="14.00">location_private :boolean</text>
<text text-anchor="start" x="355.71" y="-402.8" font-family="Times,serif" font-size="14.00">related_fields_of_study :string</text>
<text text-anchor="start" x="355.71" y="-388.8" font-family="Times,serif" font-size="14.00">related_student_passions :string</text>
<text text-anchor="start" x="355.71" y="-374.8" font-family="Times,serif" font-size="14.00">address :string</text>
</g>
<!-- FieldHost&#45;&gt;Project -->
<g id="edge1" class="edge"><title>FieldHost&#45;&gt;Project</title>
<path fill="none" stroke="#b45461" d="M487.771,-770.783C481.025,-727.1 473.354,-677.428 466.407,-632.443"/>
<ellipse fill="none" stroke="#b45461" cx="488.409" cy="-774.912" rx="4.00001" ry="4.00001"/>
<polygon fill="#b45461" stroke="#b45461" points="466.37,-632.204 469.291,-621.635 465.607,-627.263 464.844,-622.321 464.844,-622.321 464.844,-622.321 465.607,-627.263 460.397,-623.008 466.37,-632.204 466.37,-632.204"/>
</g>
<!-- ProjectSession -->
<g id="node8" class="node"><title>ProjectSession</title>
<path fill="none" stroke="black" d="M516.831,-216C516.831,-216 625.841,-216 625.841,-216 631.841,-216 637.841,-222 637.841,-228 637.841,-228 637.841,-304 637.841,-304 637.841,-310 631.841,-316 625.841,-316 625.841,-316 516.831,-316 516.831,-316 510.831,-316 504.831,-310 504.831,-304 504.831,-304 504.831,-228 504.831,-228 504.831,-222 510.831,-216 516.831,-216"/>
<text text-anchor="middle" x="571.336" y="-300.8" font-family="Times,serif" font-size="14.00">ProjectSession</text>
<polyline fill="none" stroke="black" points="504.831,-294 637.841,-294 "/>
<text text-anchor="start" x="512.831" y="-278.8" font-family="Times,serif" font-size="14.00">id :integer</text>
<text text-anchor="start" x="512.831" y="-264.8" font-family="Times,serif" font-size="14.00">project_id :integer</text>
<text text-anchor="start" x="512.831" y="-250.8" font-family="Times,serif" font-size="14.00">created_at :datetime</text>
<text text-anchor="start" x="512.831" y="-236.8" font-family="Times,serif" font-size="14.00">updated_at :datetime</text>
<text text-anchor="start" x="512.831" y="-222.8" font-family="Times,serif" font-size="14.00">session_id :integer</text>
</g>
<!-- FieldHost&#45;&gt;ProjectSession -->
<g id="edge2" class="edge"><title>FieldHost&#45;&gt;ProjectSession</title>
<path fill="none" stroke="#6b02f8" d="M530.394,-768.908C538.2,-725.241 546.17,-675.566 551.336,-630 563.416,-523.451 568.271,-398.448 570.17,-326.412"/>
<polygon fill="#6b02f8" stroke="#6b02f8" points="530.349,-769.156 524.146,-778.199 529.462,-774.077 528.574,-778.998 528.574,-778.998 528.574,-778.998 529.462,-774.077 533.003,-779.796 530.349,-769.156 530.349,-769.156"/>
<polygon fill="#6b02f8" stroke="#6b02f8" points="570.176,-326.174 574.928,-316.291 570.303,-321.175 570.429,-316.177 570.429,-316.177 570.429,-316.177 570.303,-321.175 565.931,-316.063 570.176,-326.174 570.176,-326.174"/>
</g>
<!-- Organization -->
<g id="node4" class="node"><title>Organization</title>
<path fill="none" stroke="black" d="M396.281,-1183C396.281,-1183 528.391,-1183 528.391,-1183 534.391,-1183 540.391,-1189 540.391,-1195 540.391,-1195 540.391,-1257 540.391,-1257 540.391,-1263 534.391,-1269 528.391,-1269 528.391,-1269 396.281,-1269 396.281,-1269 390.281,-1269 384.281,-1263 384.281,-1257 384.281,-1257 384.281,-1195 384.281,-1195 384.281,-1189 390.281,-1183 396.281,-1183"/>
<text text-anchor="middle" x="462.336" y="-1253.8" font-family="Times,serif" font-size="14.00">Organization</text>
<polyline fill="none" stroke="black" points="384.281,-1247 540.391,-1247 "/>
<text text-anchor="start" x="392.281" y="-1231.8" font-family="Times,serif" font-size="14.00">id :integer</text>
<text text-anchor="start" x="392.281" y="-1217.8" font-family="Times,serif" font-size="14.00">name :string</text>
<text text-anchor="start" x="392.281" y="-1203.8" font-family="Times,serif" font-size="14.00">organization_type :string</text>
<text text-anchor="start" x="392.281" y="-1189.8" font-family="Times,serif" font-size="14.00">website :string</text>
</g>
<!-- Organization&#45;&gt;FieldHost -->
<g id="edge6" class="edge"><title>Organization&#45;&gt;FieldHost</title>
<path fill="none" stroke="#05db18" d="M468.982,-1174.85C474.572,-1132.67 482.801,-1070.58 490.113,-1015.41"/>
<ellipse fill="none" stroke="#05db18" cx="468.434" cy="-1178.99" rx="4.00001" ry="4.00001"/>
<polygon fill="#05db18" stroke="#05db18" points="490.153,-1015.11 495.928,-1005.79 490.81,-1010.15 491.467,-1005.19 491.467,-1005.19 491.467,-1005.19 490.81,-1010.15 487.006,-1004.6 490.153,-1015.11 490.153,-1015.11"/>
</g>
<!-- Organization&#45;&gt;Project -->
<g id="edge7" class="edge"><title>Organization&#45;&gt;Project</title>
<path fill="none" stroke="#af35df" d="M439.571,-1175.36C432.586,-1157.65 425.825,-1137.3 422.336,-1118 386.594,-920.316 408.839,-866.435 422.336,-666 423.079,-654.968 424.09,-643.561 425.276,-632.119"/>
<ellipse fill="none" stroke="#af35df" cx="441.07" cy="-1179.07" rx="4.00002" ry="4.00002"/>
<polygon fill="#af35df" stroke="#af35df" points="425.288,-632.006 430.835,-622.546 425.825,-627.034 426.361,-622.063 426.361,-622.063 426.361,-622.063 425.825,-627.034 421.887,-621.581 425.288,-632.006 425.288,-632.006"/>
</g>
<!-- ProjectMedia -->
<g id="node7" class="node"><title>ProjectMedia</title>
<path fill="none" stroke="black" d="M251.831,-209C251.831,-209 360.841,-209 360.841,-209 366.841,-209 372.841,-215 372.841,-221 372.841,-221 372.841,-311 372.841,-311 372.841,-317 366.841,-323 360.841,-323 360.841,-323 251.831,-323 251.831,-323 245.831,-323 239.831,-317 239.831,-311 239.831,-311 239.831,-221 239.831,-221 239.831,-215 245.831,-209 251.831,-209"/>
<text text-anchor="middle" x="306.336" y="-307.8" font-family="Times,serif" font-size="14.00">ProjectMedia</text>
<polyline fill="none" stroke="black" points="239.831,-301 372.841,-301 "/>
<text text-anchor="start" x="247.831" y="-285.8" font-family="Times,serif" font-size="14.00">id :integer</text>
<text text-anchor="start" x="247.831" y="-271.8" font-family="Times,serif" font-size="14.00">image :string</text>
<text text-anchor="start" x="247.831" y="-257.8" font-family="Times,serif" font-size="14.00">project_id :integer</text>
<text text-anchor="start" x="247.831" y="-243.8" font-family="Times,serif" font-size="14.00">order :integer</text>
<text text-anchor="start" x="247.831" y="-229.8" font-family="Times,serif" font-size="14.00">created_at :datetime</text>
<text text-anchor="start" x="247.831" y="-215.8" font-family="Times,serif" font-size="14.00">updated_at :datetime</text>
</g>
<!-- Project&#45;&gt;ProjectMedia -->
<g id="edge9" class="edge"><title>Project&#45;&gt;ProjectMedia</title>
<path fill="none" stroke="#3088f1" d="M363.871,-360.96C357.75,-350.963 351.756,-341.175 346.088,-331.918"/>
<ellipse fill="none" stroke="#3088f1" cx="366.024" cy="-364.476" rx="4.00002" ry="4.00002"/>
<polygon fill="#3088f1" stroke="#3088f1" points="345.981,-331.744 344.597,-320.866 343.37,-327.48 340.759,-323.216 340.759,-323.216 340.759,-323.216 343.37,-327.48 336.921,-325.566 345.981,-331.744 345.981,-331.744"/>
</g>
<!-- Project&#45;&gt;ProjectSession -->
<g id="edge10" class="edge"><title>Project&#45;&gt;ProjectSession</title>
<path fill="none" stroke="#d49b5e" d="M519.384,-360.597C526.302,-348.133 533.037,-335.999 539.241,-324.822"/>
<ellipse fill="none" stroke="#d49b5e" cx="517.278" cy="-364.39" rx="4.00002" ry="4.00002"/>
<polygon fill="#d49b5e" stroke="#d49b5e" points="539.242,-324.82 548.03,-318.26 541.669,-320.448 544.095,-316.077 544.095,-316.077 544.095,-316.077 541.669,-320.448 540.161,-313.893 539.242,-324.82 539.242,-324.82"/>
</g>
<!-- ProjectLoader -->
<g id="node6" class="node"><title>ProjectLoader</title>
<polygon fill="none" stroke="black" points="711.688,-1204 711.688,-1248 806.985,-1248 806.985,-1204 711.688,-1204"/>
<text text-anchor="middle" x="759.336" y="-1232.8" font-family="Times,serif" font-size="14.00">ProjectLoader</text>
<polyline fill="none" stroke="black" points="711.688,-1226 806.985,-1226 "/>
<text text-anchor="middle" x="759.336" y="-1210.8" font-family="Times,serif" font-size="14.00"> </text>
</g>
<!-- StudentApplication -->
<g id="node13" class="node"><title>StudentApplication</title>
<path fill="none" stroke="black" d="M26.1032,-1C26.1032,-1 168.569,-1 168.569,-1 174.569,-1 180.569,-7 180.569,-13 180.569,-13 180.569,-159 180.569,-159 180.569,-165 174.569,-171 168.569,-171 168.569,-171 26.1032,-171 26.1032,-171 20.1032,-171 14.1032,-165 14.1032,-159 14.1032,-159 14.1032,-13 14.1032,-13 14.1032,-7 20.1032,-1 26.1032,-1"/>
<text text-anchor="middle" x="97.3361" y="-155.8" font-family="Times,serif" font-size="14.00">StudentApplication</text>
<polyline fill="none" stroke="black" points="14.1032,-149 180.569,-149 "/>
<text text-anchor="start" x="22.1032" y="-133.8" font-family="Times,serif" font-size="14.00">id :integer</text>
<text text-anchor="start" x="22.1032" y="-119.8" font-family="Times,serif" font-size="14.00">project_session_id :integer</text>
<text text-anchor="start" x="22.1032" y="-105.8" font-family="Times,serif" font-size="14.00">student_id :integer</text>
<text text-anchor="start" x="22.1032" y="-91.8" font-family="Times,serif" font-size="14.00">status :string</text>
<text text-anchor="start" x="22.1032" y="-77.8" font-family="Times,serif" font-size="14.00">application_status :string</text>
<text text-anchor="start" x="22.1032" y="-63.8" font-family="Times,serif" font-size="14.00">application_deadline :date</text>
<text text-anchor="start" x="22.1032" y="-49.8" font-family="Times,serif" font-size="14.00">created_at :datetime</text>
<text text-anchor="start" x="22.1032" y="-35.8" font-family="Times,serif" font-size="14.00">updated_at :datetime</text>
<text text-anchor="start" x="22.1032" y="-21.8" font-family="Times,serif" font-size="14.00">wizard_status :string</text>
<text text-anchor="start" x="22.1032" y="-7.8" font-family="Times,serif" font-size="14.00">agree_terms :boolean</text>
</g>
<!-- ProjectSession&#45;&gt;StudentApplication -->
<g id="edge14" class="edge"><title>ProjectSession&#45;&gt;StudentApplication</title>
<path fill="none" stroke="#a53dad" d="M497.06,-237.107C414.232,-206.003 280.136,-155.646 190.382,-121.941"/>
<ellipse fill="none" stroke="#a53dad" cx="500.935" cy="-238.562" rx="4.00001" ry="4.00001"/>
<polygon fill="#a53dad" stroke="#a53dad" points="190.114,-121.841 182.334,-114.112 185.433,-120.083 180.752,-118.325 180.752,-118.325 180.752,-118.325 185.433,-120.083 179.17,-122.538 190.114,-121.841 190.114,-121.841"/>
</g>
<!-- Reference -->
<g id="node9" class="node"><title>Reference</title>
<path fill="none" stroke="black" d="M168.831,-1155C168.831,-1155 277.841,-1155 277.841,-1155 283.841,-1155 289.841,-1161 289.841,-1167 289.841,-1167 289.841,-1285 289.841,-1285 289.841,-1291 283.841,-1297 277.841,-1297 277.841,-1297 168.831,-1297 168.831,-1297 162.831,-1297 156.831,-1291 156.831,-1285 156.831,-1285 156.831,-1167 156.831,-1167 156.831,-1161 162.831,-1155 168.831,-1155"/>
<text text-anchor="middle" x="223.336" y="-1281.8" font-family="Times,serif" font-size="14.00">Reference</text>
<polyline fill="none" stroke="black" points="156.831,-1275 289.841,-1275 "/>
<text text-anchor="start" x="164.831" y="-1259.8" font-family="Times,serif" font-size="14.00">id :integer</text>
<text text-anchor="start" x="164.831" y="-1245.8" font-family="Times,serif" font-size="14.00">first_name :string</text>
<text text-anchor="start" x="164.831" y="-1231.8" font-family="Times,serif" font-size="14.00">last_name :string</text>
<text text-anchor="start" x="164.831" y="-1217.8" font-family="Times,serif" font-size="14.00">email :string</text>
<text text-anchor="start" x="164.831" y="-1203.8" font-family="Times,serif" font-size="14.00">phone :string</text>
<text text-anchor="start" x="164.831" y="-1189.8" font-family="Times,serif" font-size="14.00">description :string</text>
<text text-anchor="start" x="164.831" y="-1175.8" font-family="Times,serif" font-size="14.00">created_at :datetime</text>
<text text-anchor="start" x="164.831" y="-1161.8" font-family="Times,serif" font-size="14.00">updated_at :datetime</text>
</g>
<!-- Student -->
<g id="node12" class="node"><title>Student</title>
<path fill="none" stroke="black" d="M102.389,-667C102.389,-667 278.283,-667 278.283,-667 284.283,-667 290.283,-673 290.283,-679 290.283,-679 290.283,-1105 290.283,-1105 290.283,-1111 284.283,-1117 278.283,-1117 278.283,-1117 102.389,-1117 102.389,-1117 96.3893,-1117 90.3893,-1111 90.3893,-1105 90.3893,-1105 90.3893,-679 90.3893,-679 90.3893,-673 96.3893,-667 102.389,-667"/>
<text text-anchor="middle" x="190.336" y="-1101.8" font-family="Times,serif" font-size="14.00">Student</text>
<polyline fill="none" stroke="black" points="90.3893,-1095 290.283,-1095 "/>
<text text-anchor="start" x="98.3893" y="-1079.8" font-family="Times,serif" font-size="14.00">id :integer</text>
<text text-anchor="start" x="98.3893" y="-1065.8" font-family="Times,serif" font-size="14.00">first_name :string</text>
<text text-anchor="start" x="98.3893" y="-1051.8" font-family="Times,serif" font-size="14.00">last_name :string</text>
<text text-anchor="start" x="98.3893" y="-1037.8" font-family="Times,serif" font-size="14.00">birthday :date</text>
<text text-anchor="start" x="98.3893" y="-1023.8" font-family="Times,serif" font-size="14.00">gender :string</text>
<text text-anchor="start" x="98.3893" y="-1009.8" font-family="Times,serif" font-size="14.00">street_address :string</text>
<text text-anchor="start" x="98.3893" y="-995.8" font-family="Times,serif" font-size="14.00">city :string</text>
<text text-anchor="start" x="98.3893" y="-981.8" font-family="Times,serif" font-size="14.00">postal_code :string</text>
<text text-anchor="start" x="98.3893" y="-967.8" font-family="Times,serif" font-size="14.00">country :string</text>
<text text-anchor="start" x="98.3893" y="-953.8" font-family="Times,serif" font-size="14.00">preferred_phone :string</text>
<text text-anchor="start" x="98.3893" y="-939.8" font-family="Times,serif" font-size="14.00">phone_type :string</text>
<text text-anchor="start" x="98.3893" y="-925.8" font-family="Times,serif" font-size="14.00">properties :hstore</text>
<text text-anchor="start" x="98.3893" y="-911.8" font-family="Times,serif" font-size="14.00">marital_status :string</text>
<text text-anchor="start" x="98.3893" y="-897.8" font-family="Times,serif" font-size="14.00">organization :string</text>
<text text-anchor="start" x="98.3893" y="-883.8" font-family="Times,serif" font-size="14.00">applied_ipo_before :boolean</text>
<text text-anchor="start" x="98.3893" y="-869.8" font-family="Times,serif" font-size="14.00">description :text</text>
<text text-anchor="start" x="98.3893" y="-855.8" font-family="Times,serif" font-size="14.00">academic_reference_id :integer</text>
<text text-anchor="start" x="98.3893" y="-841.8" font-family="Times,serif" font-size="14.00">spiritual_reference_id :integer</text>
<text text-anchor="start" x="98.3893" y="-827.8" font-family="Times,serif" font-size="14.00">created_at :datetime</text>
<text text-anchor="start" x="98.3893" y="-813.8" font-family="Times,serif" font-size="14.00">updated_at :datetime</text>
<text text-anchor="start" x="98.3893" y="-799.8" font-family="Times,serif" font-size="14.00">fields_of_study :string</text>
<text text-anchor="start" x="98.3893" y="-785.8" font-family="Times,serif" font-size="14.00">passions :string</text>
<text text-anchor="start" x="98.3893" y="-771.8" font-family="Times,serif" font-size="14.00">experiences :string</text>
<text text-anchor="start" x="98.3893" y="-757.8" font-family="Times,serif" font-size="14.00">spoken_languages :string</text>
<text text-anchor="start" x="98.3893" y="-743.8" font-family="Times,serif" font-size="14.00">heard_about_ipo :string</text>
<text text-anchor="start" x="98.3893" y="-729.8" font-family="Times,serif" font-size="14.00">profile_picture :string</text>
<text text-anchor="start" x="98.3893" y="-715.8" font-family="Times,serif" font-size="14.00">cover_photo :string</text>
<text text-anchor="start" x="98.3893" y="-701.8" font-family="Times,serif" font-size="14.00">biography :text</text>
<text text-anchor="start" x="98.3893" y="-687.8" font-family="Times,serif" font-size="14.00">public_contact_information :text</text>
<text text-anchor="start" x="98.3893" y="-673.8" font-family="Times,serif" font-size="14.00">published_status :boolean</text>
</g>
<!-- Reference&#45;&gt;Student -->
<g id="edge16" class="edge"><title>Reference&#45;&gt;Student</title>
<path fill="none" stroke="#c98d70" d="M215.566,-1146.83C214.935,-1140.48 214.28,-1133.89 213.607,-1127.12"/>
<ellipse fill="none" stroke="#c98d70" cx="215.982" cy="-1151.02" rx="4" ry="4"/>
<polygon fill="#c98d70" stroke="#c98d70" points="213.597,-1127.02 217.086,-1116.62 213.102,-1122.04 212.608,-1117.07 212.608,-1117.07 212.608,-1117.07 213.102,-1122.04 208.13,-1117.51 213.597,-1127.02 213.597,-1127.02"/>
</g>
<!-- Session -->
<g id="node10" class="node"><title>Session</title>
<path fill="none" stroke="black" d="M649.672,-821C649.672,-821 789,-821 789,-821 795,-821 801,-827 801,-833 801,-833 801,-951 801,-951 801,-957 795,-963 789,-963 789,-963 649.672,-963 649.672,-963 643.672,-963 637.672,-957 637.672,-951 637.672,-951 637.672,-833 637.672,-833 637.672,-827 643.672,-821 649.672,-821"/>
<text text-anchor="middle" x="719.336" y="-947.8" font-family="Times,serif" font-size="14.00">Session</text>
<polyline fill="none" stroke="black" points="637.672,-941 801,-941 "/>
<text text-anchor="start" x="645.672" y="-925.8" font-family="Times,serif" font-size="14.00">id :integer</text>
<text text-anchor="start" x="645.672" y="-911.8" font-family="Times,serif" font-size="14.00">title :string</text>
<text text-anchor="start" x="645.672" y="-897.8" font-family="Times,serif" font-size="14.00">start_date :date</text>
<text text-anchor="start" x="645.672" y="-883.8" font-family="Times,serif" font-size="14.00">end_date :date</text>
<text text-anchor="start" x="645.672" y="-869.8" font-family="Times,serif" font-size="14.00">duration :string</text>
<text text-anchor="start" x="645.672" y="-855.8" font-family="Times,serif" font-size="14.00">application_deadline :date</text>
<text text-anchor="start" x="645.672" y="-841.8" font-family="Times,serif" font-size="14.00">created_at :datetime</text>
<text text-anchor="start" x="645.672" y="-827.8" font-family="Times,serif" font-size="14.00">updated_at :datetime</text>
</g>
<!-- Session&#45;&gt;ProjectSession -->
<g id="edge18" class="edge"><title>Session&#45;&gt;ProjectSession</title>
<path fill="none" stroke="#c1b241" d="M713.322,-812.725C703.408,-707.266 678.893,-514.913 623.336,-360 619.148,-348.321 613.585,-336.379 607.655,-325.112"/>
<ellipse fill="none" stroke="#c1b241" cx="713.699" cy="-816.805" rx="4" ry="4"/>
<polygon fill="#c1b241" stroke="#c1b241" points="607.609,-325.028 606.795,-314.093 605.225,-320.634 602.84,-316.239 602.84,-316.239 602.84,-316.239 605.225,-320.634 598.885,-318.385 607.609,-325.028 607.609,-325.028"/>
</g>
<!-- Settings -->
<g id="node11" class="node"><title>Settings</title>
<polygon fill="none" stroke="black" points="836.777,-1204 836.777,-1248 897.895,-1248 897.895,-1204 836.777,-1204"/>
<text text-anchor="middle" x="867.336" y="-1232.8" font-family="Times,serif" font-size="14.00">Settings</text>
<polyline fill="none" stroke="black" points="836.777,-1226 897.895,-1226 "/>
<text text-anchor="middle" x="867.336" y="-1210.8" font-family="Times,serif" font-size="14.00"> </text>
</g>
<!-- Student&#45;&gt;Login -->
<g id="edge21" class="edge"><title>Student&#45;&gt;Login</title>
<path fill="none" stroke="#50e7e9" d="M212.079,-658.879C212.755,-651.662 213.425,-644.509 214.085,-637.46"/>
<ellipse fill="none" stroke="#50e7e9" cx="211.696" cy="-662.973" rx="4" ry="4"/>
<ellipse fill="#50e7e9" stroke="#50e7e9" cx="214.483" cy="-633.218" rx="4" ry="4"/>
</g>
<!-- Student&#45;&gt;Project -->
<g id="edge23" class="edge"><title>Student&#45;&gt;Project</title>
<path fill="none" stroke="#552452" d="M295.83,-727.588C316.592,-695.427 338.157,-662.022 358.233,-630.925"/>
<polygon fill="#552452" stroke="#552452" points="295.811,-727.618 286.606,-733.579 293.099,-731.819 290.387,-736.019 290.387,-736.019 290.387,-736.019 293.099,-731.819 294.168,-738.46 295.811,-727.618 295.811,-727.618"/>
<polygon fill="#552452" stroke="#552452" points="358.43,-630.62 367.634,-624.659 361.141,-626.419 363.853,-622.218 363.853,-622.218 363.853,-622.218 361.141,-626.419 360.073,-619.778 358.43,-630.62 358.43,-630.62"/>
</g>
<!-- Student&#45;&gt;StudentApplication -->
<g id="edge22" class="edge"><title>Student&#45;&gt;StudentApplication</title>
<path fill="none" stroke="#16b290" d="M121.43,-658.702C119.532,-649.046 117.819,-639.451 116.336,-630 91.9035,-474.273 91.2726,-290.477 93.7802,-181.613"/>
<ellipse fill="none" stroke="#16b290" cx="122.277" cy="-662.904" rx="4.00001" ry="4.00001"/>
<polygon fill="#16b290" stroke="#16b290" points="93.7875,-181.312 98.5307,-171.425 93.9098,-176.314 94.032,-171.315 94.032,-171.315 94.032,-171.315 93.9098,-176.314 89.5334,-171.205 93.7875,-181.312 93.7875,-181.312"/>
</g>
<!-- ActiveRecord::Base -->
<g id="node14" class="node"><title>ActiveRecord::Base</title>
<ellipse fill="none" stroke="black" cx="337.336" cy="-1371" rx="80.9821" ry="18"/>
<text text-anchor="middle" x="337.336" y="-1366.8" font-family="Times,serif" font-size="14.00">ActiveRecord::Base</text>
</g>
<!-- ActiveRecord::Base&#45;&gt;FieldHost -->
<g id="edge4" class="edge"><title>ActiveRecord::Base&#45;&gt;FieldHost</title>
<path fill="none" stroke="black" d="M414.693,-1365.46C461.914,-1358.21 518.887,-1340.5 549.336,-1298 609.77,-1213.65 586.787,-1092.92 556.165,-1005.24"/>
</g>
<!-- ActiveRecord::Base&#45;&gt;Login -->
<g id="edge5" class="edge"><title>ActiveRecord::Base&#45;&gt;Login</title>
<path fill="none" stroke="black" d="M336.733,-1352.81C333.137,-1251.55 314.124,-734.828 298.336,-666 295.547,-653.842 291.96,-641.443 287.883,-629.158"/>
</g>
<!-- ActiveRecord::Base&#45;&gt;Organization -->
<g id="edge8" class="edge"><title>ActiveRecord::Base&#45;&gt;Organization</title>
<path fill="none" stroke="black" d="M352.166,-1353.03C370.144,-1332.47 401.079,-1297.08 425.6,-1269.03"/>
</g>
<!-- ActiveRecord::Base&#45;&gt;Project -->
<g id="edge11" class="edge"><title>ActiveRecord::Base&#45;&gt;Project</title>
<path fill="none" stroke="black" d="M337.73,-1352.96C339.783,-1274.15 351.093,-937.193 399.336,-666 401.88,-651.701 405.063,-636.856 408.561,-622.159"/>
</g>
<!-- ActiveRecord::Base&#45;&gt;ProjectMedia -->
<g id="edge13" class="edge"><title>ActiveRecord::Base&#45;&gt;ProjectMedia</title>
<path fill="none" stroke="black" d="M301.839,-1354.76C285.169,-1347.92 264.918,-1340.04 246.336,-1334 185.235,-1314.14 149.111,-1345.94 106.336,-1298 52.5614,-1237.74 86.9049,-1198.58 81.3361,-1118 69.7098,-949.777 19.0823,-497.752 116.336,-360 145.249,-319.047 197.347,-295.326 239.685,-282.104"/>
</g>
<!-- ActiveRecord::Base&#45;&gt;ProjectSession -->
<g id="edge15" class="edge"><title>ActiveRecord::Base&#45;&gt;ProjectSession</title>
<path fill="none" stroke="black" d="M400.871,-1359.78C465.44,-1347.98 559.047,-1326.48 581.336,-1298 642.192,-1220.25 590.727,-510.762 575.342,-316.166"/>
</g>
<!-- ActiveRecord::Base&#45;&gt;Reference -->
<g id="edge17" class="edge"><title>ActiveRecord::Base&#45;&gt;Reference</title>
<path fill="none" stroke="black" d="M323.811,-1353.03C312.605,-1338.98 295.88,-1318 279.274,-1297.17"/>
</g>
<!-- ActiveRecord::Base&#45;&gt;Session -->
<g id="edge19" class="edge"><title>ActiveRecord::Base&#45;&gt;Session</title>
<path fill="none" stroke="black" d="M405.448,-1361.08C480.079,-1349.93 593.225,-1328.53 623.336,-1298 711.751,-1208.35 724.281,-1053.1 723.268,-963.096"/>
</g>
<!-- ActiveRecord::Base&#45;&gt;Student -->
<g id="edge24" class="edge"><title>ActiveRecord::Base&#45;&gt;Student</title>
<path fill="none" stroke="black" d="M299.794,-1354.88C283.418,-1348.35 263.968,-1340.69 246.336,-1334 202.564,-1317.39 174.196,-1336.35 147.336,-1298 110.777,-1245.8 105.289,-1180.16 113.525,-1117.02"/>
</g>
<!-- ActiveRecord::Base&#45;&gt;StudentApplication -->
<g id="edge25" class="edge"><title>ActiveRecord::Base&#45;&gt;StudentApplication</title>
<path fill="none" stroke="black" d="M302.399,-1354.54C285.674,-1347.56 265.219,-1339.64 246.336,-1334 170.671,-1311.39 125.936,-1356 72.3361,-1298 -50.7989,-1164.77 21.3361,-1074.42 21.3361,-893 21.3361,-893 21.3361,-893 21.3361,-494 21.3361,-380.787 50.1031,-252.824 72.2402,-171.113"/>
</g>
<!-- Object -->
<g id="node15" class="node"><title>Object</title>
<ellipse fill="none" stroke="black" cx="759.336" cy="-1371" rx="33.5181" ry="18"/>
<text text-anchor="middle" x="759.336" y="-1366.8" font-family="Times,serif" font-size="14.00">Object</text>
</g>
<!-- Object&#45;&gt;ProjectLoader -->
<g id="edge12" class="edge"><title>Object&#45;&gt;ProjectLoader</title>
<path fill="none" stroke="black" d="M759.336,-1352.75C759.336,-1326.45 759.336,-1276.41 759.336,-1248.02"/>
</g>
<!-- Settingslogic -->
<g id="node16" class="node"><title>Settingslogic</title>
<ellipse fill="none" stroke="black" cx="867.336" cy="-1371" rx="55.9347" ry="18"/>
<text text-anchor="middle" x="867.336" y="-1366.8" font-family="Times,serif" font-size="14.00">Settingslogic</text>
</g>
<!-- Settingslogic&#45;&gt;Settings -->
<g id="edge20" class="edge"><title>Settingslogic&#45;&gt;Settings</title>
<path fill="none" stroke="black" d="M867.336,-1352.75C867.336,-1326.45 867.336,-1276.41 867.336,-1248.02"/>
</g>
</g>
</svg>
