<?xml version="1.0" encoding="UTF-8" standalone="no"?>
<!DOCTYPE svg PUBLIC "-//W3C//DTD SVG 1.1//EN"
 "http://www.w3.org/Graphics/SVG/1.1/DTD/svg11.dtd">
<!-- Generated by graphviz version 2.36.0 (20140111.2315)
 -->
<!-- Title: models_diagram Pages: 1 -->
<svg width="830pt" height="442pt"
 viewBox="0.00 0.00 830.00 442.00" xmlns="http://www.w3.org/2000/svg" xmlns:xlink="http://www.w3.org/1999/xlink">
<g id="graph0" class="graph" transform="scale(1 1) rotate(0) translate(4 438)">
<title>models_diagram</title>
<polygon fill="white" stroke="none" points="-4,4 -4,-438 826,-438 826,4 -4,4"/>
<!-- _diagram_info -->
<g id="node1" class="node"><title>_diagram_info</title>
<text text-anchor="start" x="7.78833" y="-419.1" font-family="Times,serif" font-size="13.00">Models diagram</text>
<text text-anchor="start" x="7.78833" y="-406.1" font-family="Times,serif" font-size="13.00">Date: Feb 23 2014 &#45; 19:25</text>
<text text-anchor="start" x="7.78833" y="-393.1" font-family="Times,serif" font-size="13.00">Migration version: 20140211153034</text>
<text text-anchor="start" x="7.78833" y="-380.1" font-family="Times,serif" font-size="13.00">Generated by RailRoady 1.1.1</text>
<text text-anchor="start" x="7.78833" y="-367.1" font-family="Times,serif" font-size="13.00">http://railroady.prestonlee.com</text>
</g>
<!-- FieldHost -->
<g id="node2" class="node"><title>FieldHost</title>
<ellipse fill="none" stroke="black" cx="436" cy="-234" rx="44.4892" ry="18"/>
<text text-anchor="middle" x="436" y="-229.8" font-family="Times,serif" font-size="14.00">FieldHost</text>
</g>
<!-- Login -->
<g id="node3" class="node"><title>Login</title>
<ellipse fill="none" stroke="black" cx="279" cy="-162" rx="31.3473" ry="18"/>
<text text-anchor="middle" x="279" y="-157.8" font-family="Times,serif" font-size="14.00">Login</text>
</g>
<!-- FieldHost&#45;&gt;Login -->
<g id="edge3" class="edge"><title>FieldHost&#45;&gt;Login</title>
<path fill="none" stroke="#a65741" d="M399.529,-216.739C372.597,-204.731 336.306,-188.55 310.604,-177.091"/>
<ellipse fill="none" stroke="#a65741" cx="403.55" cy="-218.532" rx="4.00002" ry="4.00002"/>
<ellipse fill="#a65741" stroke="#a65741" cx="306.642" cy="-175.325" rx="4.00002" ry="4.00002"/>
</g>
<!-- Project -->
<g id="node5" class="node"><title>Project</title>
<ellipse fill="none" stroke="black" cx="363" cy="-162" rx="35.2345" ry="18"/>
<text text-anchor="middle" x="363" y="-157.8" font-family="Times,serif" font-size="14.00">Project</text>
</g>
<!-- FieldHost&#45;&gt;Project -->
<g id="edge1" class="edge"><title>FieldHost&#45;&gt;Project</title>
<path fill="none" stroke="#3c3c62" d="M413.479,-211.405C404.848,-203.128 394.988,-193.673 386.286,-185.329"/>
<ellipse fill="none" stroke="#3c3c62" cx="416.548" cy="-214.347" rx="4.00002" ry="4.00002"/>
<polygon fill="#3c3c62" stroke="#3c3c62" points="386.215,-185.261 382.112,-175.092 382.607,-181.801 378.998,-178.34 378.998,-178.34 378.998,-178.34 382.607,-181.801 375.883,-181.588 386.215,-185.261 386.215,-185.261"/>
</g>
<!-- ProjectSession -->
<g id="node8" class="node"><title>ProjectSession</title>
<ellipse fill="none" stroke="black" cx="436" cy="-90" rx="62.2749" ry="18"/>
<text text-anchor="middle" x="436" y="-85.8" font-family="Times,serif" font-size="14.00">ProjectSession</text>
</g>
<!-- FieldHost&#45;&gt;ProjectSession -->
<g id="edge2" class="edge"><title>FieldHost&#45;&gt;ProjectSession</title>
<path fill="none" stroke="#b19d7d" d="M436,-205.679C436,-180.599 436,-143.627 436,-118.493"/>
<polygon fill="#b19d7d" stroke="#b19d7d" points="436,-205.871 431.5,-215.871 436,-210.871 436,-215.871 436,-215.871 436,-215.871 436,-210.871 440.5,-215.872 436,-205.871 436,-205.871"/>
<polygon fill="#b19d7d" stroke="#b19d7d" points="436,-118.189 440.5,-108.189 436,-113.189 436,-108.189 436,-108.189 436,-108.189 436,-113.189 431.5,-108.189 436,-118.189 436,-118.189"/>
</g>
<!-- Organization -->
<g id="node4" class="node"><title>Organization</title>
<ellipse fill="none" stroke="black" cx="409" cy="-306" rx="56.1744" ry="18"/>
<text text-anchor="middle" x="409" y="-301.8" font-family="Times,serif" font-size="14.00">Organization</text>
</g>
<!-- Organization&#45;&gt;FieldHost -->
<g id="edge6" class="edge"><title>Organization&#45;&gt;FieldHost</title>
<path fill="none" stroke="#bd431e" d="M418.432,-280.548C420.792,-274.428 423.335,-267.835 425.734,-261.616"/>
<ellipse fill="none" stroke="#bd431e" cx="416.975" cy="-284.323" rx="4.00001" ry="4.00001"/>
<polygon fill="#bd431e" stroke="#bd431e" points="425.738,-261.605 433.535,-253.895 427.537,-256.94 429.337,-252.275 429.337,-252.275 429.337,-252.275 427.537,-256.94 425.138,-250.656 425.738,-261.605 425.738,-261.605"/>
</g>
<!-- Organization&#45;&gt;Project -->
<g id="edge7" class="edge"><title>Organization&#45;&gt;Project</title>
<path fill="none" stroke="#c98f69" d="M394.985,-280.786C390.326,-271.949 385.451,-261.733 382,-252 374.839,-231.804 369.933,-208.028 366.902,-190.134"/>
<ellipse fill="none" stroke="#c98f69" cx="396.906" cy="-284.327" rx="4.00002" ry="4.00002"/>
<polygon fill="#c98f69" stroke="#c98f69" points="366.876,-189.967 369.736,-179.381 366.084,-185.03 365.293,-180.093 365.293,-180.093 365.293,-180.093 366.084,-185.03 360.85,-180.805 366.876,-189.967 366.876,-189.967"/>
</g>
<!-- ProjectMedia -->
<g id="node7" class="node"><title>ProjectMedia</title>
<ellipse fill="none" stroke="black" cx="298" cy="-90" rx="57.6221" ry="18"/>
<text text-anchor="middle" x="298" y="-85.8" font-family="Times,serif" font-size="14.00">ProjectMedia</text>
</g>
<!-- Project&#45;&gt;ProjectMedia -->
<g id="edge9" class="edge"><title>Project&#45;&gt;ProjectMedia</title>
<path fill="none" stroke="#bd3b99" d="M342.885,-139.338C335.728,-131.631 327.629,-122.908 320.3,-115.015"/>
<ellipse fill="none" stroke="#bd3b99" cx="345.853" cy="-142.534" rx="4.00002" ry="4.00002"/>
<polygon fill="#bd3b99" stroke="#bd3b99" points="320.095,-114.795 316.589,-104.405 316.693,-111.131 313.291,-107.467 313.291,-107.467 313.291,-107.467 316.693,-111.131 309.993,-110.529 320.095,-114.795 320.095,-114.795"/>
</g>
<!-- Project&#45;&gt;ProjectSession -->
<g id="edge10" class="edge"><title>Project&#45;&gt;ProjectSession</title>
<path fill="none" stroke="#4691a6" d="M384.667,-140.223C393.131,-132.107 402.877,-122.762 411.588,-114.409"/>
<ellipse fill="none" stroke="#4691a6" cx="381.727" cy="-143.043" rx="4.00002" ry="4.00002"/>
<polygon fill="#4691a6" stroke="#4691a6" points="411.7,-114.301 422.032,-110.628 415.309,-110.841 418.918,-107.38 418.918,-107.38 418.918,-107.38 415.309,-110.841 415.803,-104.132 411.7,-114.301 411.7,-114.301"/>
</g>
<!-- ProjectLoader -->
<g id="node6" class="node"><title>ProjectLoader</title>
<polygon fill="none" stroke="black" points="705.472,-324 610.528,-324 610.528,-288 705.472,-288 705.472,-324"/>
<text text-anchor="middle" x="658" y="-301.8" font-family="Times,serif" font-size="14.00">ProjectLoader</text>
</g>
<!-- StudentApplication -->
<g id="node13" class="node"><title>StudentApplication</title>
<ellipse fill="none" stroke="black" cx="212" cy="-18" rx="78.3226" ry="18"/>
<text text-anchor="middle" x="212" y="-13.8" font-family="Times,serif" font-size="14.00">StudentApplication</text>
</g>
<!-- ProjectSession&#45;&gt;StudentApplication -->
<g id="edge14" class="edge"><title>ProjectSession&#45;&gt;StudentApplication</title>
<path fill="none" stroke="#7626a9" d="M387.37,-73.8032C351.632,-62.6351 303.064,-47.4574 266.1,-35.9063"/>
<ellipse fill="none" stroke="#7626a9" cx="391.617" cy="-75.1304" rx="4.00001" ry="4.00001"/>
<polygon fill="#7626a9" stroke="#7626a9" points="266.031,-35.8848 257.829,-28.6068 261.259,-34.3934 256.486,-32.902 256.486,-32.902 256.486,-32.902 261.259,-34.3934 255.144,-37.1971 266.031,-35.8848 266.031,-35.8848"/>
</g>
<!-- Reference -->
<g id="node9" class="node"><title>Reference</title>
<ellipse fill="none" stroke="black" cx="213" cy="-306" rx="45.4147" ry="18"/>
<text text-anchor="middle" x="213" y="-301.8" font-family="Times,serif" font-size="14.00">Reference</text>
</g>
<!-- Student -->
<g id="node12" class="node"><title>Student</title>
<ellipse fill="none" stroke="black" cx="213" cy="-234" rx="37.1944" ry="18"/>
<text text-anchor="middle" x="213" y="-229.8" font-family="Times,serif" font-size="14.00">Student</text>
</g>
<!-- Reference&#45;&gt;Student -->
<g id="edge16" class="edge"><title>Reference&#45;&gt;Student</title>
<path fill="none" stroke="#b5e53b" d="M213,-279.64C213,-274.063 213,-268.132 213,-262.476"/>
<ellipse fill="none" stroke="#b5e53b" cx="213" cy="-283.697" rx="4" ry="4"/>
<polygon fill="#b5e53b" stroke="#b5e53b" points="213,-262.104 217.5,-252.104 213,-257.104 213,-252.104 213,-252.104 213,-252.104 213,-257.104 208.5,-252.104 213,-262.104 213,-262.104"/>
</g>
<!-- Session -->
<g id="node10" class="node"><title>Session</title>
<ellipse fill="none" stroke="black" cx="596" cy="-234" rx="37.2009" ry="18"/>
<text text-anchor="middle" x="596" y="-229.8" font-family="Times,serif" font-size="14.00">Session</text>
</g>
<!-- Session&#45;&gt;ProjectSession -->
<g id="edge18" class="edge"><title>Session&#45;&gt;ProjectSession</title>
<path fill="none" stroke="#7ad3a7" d="M586.652,-208.317C578.229,-188.804 564.213,-161.953 545,-144 528.077,-128.187 505.557,-116.174 485.38,-107.617"/>
<ellipse fill="none" stroke="#7ad3a7" cx="588.278" cy="-212.228" rx="4.00001" ry="4.00001"/>
<polygon fill="#7ad3a7" stroke="#7ad3a7" points="485.268,-107.571 477.695,-99.6404 480.635,-105.691 476.002,-103.81 476.002,-103.81 476.002,-103.81 480.635,-105.691 474.31,-107.979 485.268,-107.571 485.268,-107.571"/>
</g>
<!-- Settings -->
<g id="node11" class="node"><title>Settings</title>
<polygon fill="none" stroke="black" points="796.337,-324 735.663,-324 735.663,-288 796.337,-288 796.337,-324"/>
<text text-anchor="middle" x="766" y="-301.8" font-family="Times,serif" font-size="14.00">Settings</text>
</g>
<!-- Student&#45;&gt;Login -->
<g id="edge21" class="edge"><title>Student&#45;&gt;Login</title>
<path fill="none" stroke="#92596f" d="M233.314,-211.454C241.399,-202.88 250.682,-193.034 258.759,-184.467"/>
<ellipse fill="none" stroke="#92596f" cx="230.392" cy="-214.554" rx="4.00002" ry="4.00002"/>
<ellipse fill="#92596f" stroke="#92596f" cx="261.649" cy="-181.402" rx="4.00002" ry="4.00002"/>
</g>
<!-- Student&#45;&gt;Project -->
<g id="edge23" class="edge"><title>Student&#45;&gt;Project</title>
<path fill="none" stroke="#d1adc2" d="M248.027,-216.654C272.235,-205.357 304.292,-190.397 328.405,-179.144"/>
<polygon fill="#d1adc2" stroke="#d1adc2" points="247.848,-216.738 236.883,-216.889 243.317,-218.852 238.786,-220.967 238.786,-220.967 238.786,-220.967 243.317,-218.852 240.689,-225.044 247.848,-216.738 247.848,-216.738"/>
<polygon fill="#d1adc2" stroke="#d1adc2" points="328.489,-179.105 339.454,-178.954 333.02,-176.991 337.551,-174.876 337.551,-174.876 337.551,-174.876 333.02,-176.991 335.648,-170.799 328.489,-179.105 328.489,-179.105"/>
</g>
<!-- Student&#45;&gt;StudentApplication -->
<g id="edge22" class="edge"><title>Student&#45;&gt;StudentApplication</title>
<path fill="none" stroke="#53952d" d="M212.882,-207.67C212.693,-167.203 212.324,-88.2848 212.128,-46.4929"/>
<ellipse fill="none" stroke="#53952d" cx="212.901" cy="-211.849" rx="4" ry="4"/>
<polygon fill="#53952d" stroke="#53952d" points="212.127,-46.2323 216.58,-36.2114 212.104,-41.2324 212.081,-36.2325 212.081,-36.2325 212.081,-36.2325 212.104,-41.2324 207.581,-36.2535 212.127,-46.2323 212.127,-46.2323"/>
</g>
<!-- ActiveRecord::Base -->
<g id="node14" class="node"><title>ActiveRecord::Base</title>
<ellipse fill="none" stroke="black" cx="306" cy="-397" rx="80.9821" ry="18"/>
<text text-anchor="middle" x="306" y="-392.8" font-family="Times,serif" font-size="14.00">ActiveRecord::Base</text>
</g>
<!-- ActiveRecord::Base&#45;&gt;FieldHost -->
<g id="edge4" class="edge"><title>ActiveRecord::Base&#45;&gt;FieldHost</title>
<path fill="none" stroke="black" d="M370.68,-386.088C407.661,-376.744 451.116,-358.704 474,-324 489.538,-300.436 468.317,-269.471 451.892,-250.966"/>
</g>
<!-- ActiveRecord::Base&#45;&gt;Login -->
<g id="edge5" class="edge"><title>ActiveRecord::Base&#45;&gt;Login</title>
<path fill="none" stroke="black" d="M304.015,-378.867C299.022,-335.778 285.985,-223.274 280.988,-180.158"/>
</g>
<!-- ActiveRecord::Base&#45;&gt;Organization -->
<g id="edge8" class="edge"><title>ActiveRecord::Base&#45;&gt;Organization</title>
<path fill="none" stroke="black" d="M325.374,-379.26C344.021,-363.147 372.026,-338.948 390.407,-323.066"/>
</g>
<!-- ActiveRecord::Base&#45;&gt;Project -->
<g id="edge11" class="edge"><title>ActiveRecord::Base&#45;&gt;Project</title>
<path fill="none" stroke="black" d="M310.191,-378.867C320.732,-335.778 348.255,-223.274 358.803,-180.158"/>
</g>
<!-- ActiveRecord::Base&#45;&gt;ProjectMedia -->
<g id="edge13" class="edge"><title>ActiveRecord::Base&#45;&gt;ProjectMedia</title>
<path fill="none" stroke="black" d="M267.858,-381.027C223.647,-363.29 155.922,-334.79 149,-324 96.4977,-242.162 220.286,-144.005 274.318,-106.553"/>
</g>
<!-- ActiveRecord::Base&#45;&gt;ProjectSession -->
<g id="edge15" class="edge"><title>ActiveRecord::Base&#45;&gt;ProjectSession</title>
<path fill="none" stroke="black" d="M376.184,-387.912C416.716,-379.237 464.571,-361.258 490,-324 537.519,-254.378 475.721,-148.662 448.096,-107.873"/>
</g>
<!-- ActiveRecord::Base&#45;&gt;Reference -->
<g id="edge17" class="edge"><title>ActiveRecord::Base&#45;&gt;Reference</title>
<path fill="none" stroke="black" d="M288.507,-379.26C271.67,-363.147 246.384,-338.948 229.788,-323.066"/>
</g>
<!-- ActiveRecord::Base&#45;&gt;Session -->
<g id="edge19" class="edge"><title>ActiveRecord::Base&#45;&gt;Session</title>
<path fill="none" stroke="black" d="M377.855,-388.57C429.04,-380.125 496.995,-362.151 545,-324 568.701,-305.164 583.414,-272.097 590.625,-252.007"/>
</g>
<!-- ActiveRecord::Base&#45;&gt;Student -->
<g id="edge24" class="edge"><title>ActiveRecord::Base&#45;&gt;Student</title>
<path fill="none" stroke="black" d="M269.663,-380.726C227.964,-362.835 164.459,-334.326 158,-324 149.514,-310.436 151.74,-302.725 158,-288 164.848,-271.891 179.257,-258.304 191.609,-248.92"/>
</g>
<!-- ActiveRecord::Base&#45;&gt;StudentApplication -->
<g id="edge25" class="edge"><title>ActiveRecord::Base&#45;&gt;StudentApplication</title>
<path fill="none" stroke="black" d="M268.381,-380.905C219.24,-361.105 138.733,-328.352 133,-324 92.918,-293.57 63,-285.324 63,-235 63,-235 63,-235 63,-161 63,-98.6442 132.23,-55.3189 176.311,-34.0528"/>
</g>
<!-- Object -->
<g id="node15" class="node"><title>Object</title>
<ellipse fill="none" stroke="black" cx="658" cy="-397" rx="33.5181" ry="18"/>
<text text-anchor="middle" x="658" y="-392.8" font-family="Times,serif" font-size="14.00">Object</text>
</g>
<!-- Object&#45;&gt;ProjectLoader -->
<g id="edge12" class="edge"><title>Object&#45;&gt;ProjectLoader</title>
<path fill="none" stroke="black" d="M658,-378.84C658,-363.08 658,-339.851 658,-324.107"/>
</g>
<!-- Settingslogic -->
<g id="node16" class="node"><title>Settingslogic</title>
<ellipse fill="none" stroke="black" cx="766" cy="-397" rx="55.9347" ry="18"/>
<text text-anchor="middle" x="766" y="-392.8" font-family="Times,serif" font-size="14.00">Settingslogic</text>
</g>
<!-- Settingslogic&#45;&gt;Settings -->
<g id="edge20" class="edge"><title>Settingslogic&#45;&gt;Settings</title>
<path fill="none" stroke="black" d="M766,-378.84C766,-363.08 766,-339.851 766,-324.107"/>
</g>
</g>
</svg>
